<?xml version="1.0" encoding="iso-8859-1"?>
<!-- Generator: Adobe Illustrator 16.0.0, SVG Export Plug-In . SVG Version: 6.00 Build 0)  -->
<!DOCTYPE svg PUBLIC "-//W3C//DTD SVG 1.1//EN" "http://www.w3.org/Graphics/SVG/1.1/DTD/svg11.dtd">
<svg version="1.1" id="Capa_1" xmlns="http://www.w3.org/2000/svg" xmlns:xlink="http://www.w3.org/1999/xlink" x="0px" y="0px"
	 width="460.555px" height="460.555px" viewBox="0 0 460.555 460.555" style="enable-background:new 0 0 460.555 460.555;"
	 xml:space="preserve">
<g>
	<path d="M386.027,239.369c0,86.496-70.112,156.608-156.616,156.608c-86.504,0-156.607-70.119-156.607-156.608
		c0-86.497,70.103-156.618,156.607-156.618C315.915,82.751,386.027,152.873,386.027,239.369z M377.207,53.575l-46.08,31.161
		l23.415,19.636L377.207,53.575z M460.555,190.156l-55.321-5.743l5.31,30.09L460.555,190.156z M382.64,334.844l53.967,13.505
		l-38.684-39.973L382.64,334.844z M283.917,409.111l32.655,45.035l-3.945-55.488L283.917,409.111z M156.622,458.025l32.635-45.042
		l-28.706-10.44L156.622,458.025z M31.606,358.177l53.947-13.517l-15.271-26.457L31.606,358.177z M55.327,195.581L0,201.341
		l50.014,24.323L55.327,195.581z M122.702,92.026l-46.083-31.15l22.676,50.784L122.702,92.026z M225.594,2.529l-15.286,53.473
		h30.559L225.594,2.529z"/>
</g>
<g>
</g>
<g>
</g>
<g>
</g>
<g>
</g>
<g>
</g>
<g>
</g>
<g>
</g>
<g>
</g>
<g>
</g>
<g>
</g>
<g>
</g>
<g>
</g>
<g>
</g>
<g>
</g>
<g>
</g>
</svg>
